solid csg.js
facet normal 0 -1 0
outer loop
vertex 110 24 1
vertex 110 24 3.5
vertex 110 24 5.5
endloop
endfacet
facet normal 0 -1 0
outer loop
vertex 110 24 1
vertex 110 24 5.5
vertex 110 24 8
endloop
endfacet
facet normal 0 -1 0
outer loop
vertex 110 24 1
vertex 110 24 8
vertex 50 24 8
endloop
endfacet
facet normal 0 -1 0
outer loop
vertex 110 24 1
vertex 50 24 8
vertex 50 24 5.5
endloop
endfacet
facet normal 0 -1 0
outer loop
vertex 110 24 1
vertex 50 24 5.5
vertex 50 24 3.5
endloop
endfacet
facet normal 0 -1 0
outer loop
vertex 110 24 1
vertex 50 24 3.5
vertex 50 24 1
endloop
endfacet
facet normal 0 0 1
outer loop
vertex 110 0 1
vertex 110 24 1
vertex 50 24 1
endloop
endfacet
facet normal 0 0 1
outer loop
vertex 110 0 1
vertex 50 24 1
vertex 50 0 1
endloop
endfacet
facet normal 0 0 1
outer loop
vertex 49 2.1999999999999993 1
vertex 49 25 1
vertex 10 25 1
endloop
endfacet
facet normal 0 0 1
outer loop
vertex 49 2.1999999999999993 1
vertex 10 25 1
vertex 10 2.1999999999999993 1
endloop
endfacet
facet normal 0 0 1
outer loop
vertex 150 2.1999999999999993 1
vertex 150 25 1
vertex 111 25 1
endloop
endfacet
facet normal 0 0 1
outer loop
vertex 150 2.1999999999999993 1
vertex 111 25 1
vertex 111 2.1999999999999993 1
endloop
endfacet
facet normal 0 0 1
outer loop
vertex 10 25 1
vertex 49 25 1
vertex 111 25 1
endloop
endfacet
facet normal 0 0 1
outer loop
vertex 10 25 1
vertex 111 25 1
vertex 150 25 1
endloop
endfacet
facet normal 0 0 1
outer loop
vertex 10 25 1
vertex 150 25 1
vertex 151 25 1
endloop
endfacet
facet normal 0 0 1
outer loop
vertex 10 25 1
vertex 151 25 1
vertex 151 30 1
endloop
endfacet
facet normal 0 0 1
outer loop
vertex 10 25 1
vertex 151 30 1
vertex 9 30 1
endloop
endfacet
facet normal 0 0 1
outer loop
vertex 10 25 1
vertex 9 30 1
vertex 9 25 1
endloop
endfacet
facet normal 0 -1 0
outer loop
vertex 160 0 0
vertex 160 0 1
vertex 110 0 1
endloop
endfacet
facet normal 0 -1 0
outer loop
vertex 160 0 0
vertex 110 0 1
vertex 50 0 1
endloop
endfacet
facet normal 0 -1 0
outer loop
vertex 160 0 0
vertex 50 0 1
vertex 0 0 1
endloop
endfacet
facet normal 0 -1 0
outer loop
vertex 160 0 0
vertex 0 0 1
vertex 0 0 0
endloop
endfacet
facet normal 0 -1 0
outer loop
vertex 50 0 1
vertex 50 0 3.5
vertex 50 0 5.5
endloop
endfacet
facet normal 0 -1 0
outer loop
vertex 50 0 1
vertex 50 0 5.5
vertex 50 0 8
endloop
endfacet
facet normal 0 -1 0
outer loop
vertex 50 0 1
vertex 50 0 8
vertex 0 0 8
endloop
endfacet
facet normal 0 -1 0
outer loop
vertex 50 0 1
vertex 0 0 8
vertex 0 0 1
endloop
endfacet
facet normal 0 -1 0
outer loop
vertex 160 0 1
vertex 160 0 8
vertex 110 0 8
endloop
endfacet
facet normal 0 -1 0
outer loop
vertex 160 0 1
vertex 110 0 8
vertex 110 0 5.5
endloop
endfacet
facet normal 0 -1 0
outer loop
vertex 160 0 1
vertex 110 0 5.5
vertex 110 0 3.5
endloop
endfacet
facet normal 0 -1 0
outer loop
vertex 160 0 1
vertex 110 0 3.5
vertex 110 0 1
endloop
endfacet
facet normal 0 -1 0
outer loop
vertex 50 0 8
vertex 55.5 0 8
vertex 55.5 0 9
endloop
endfacet
facet normal 0 -1 0
outer loop
vertex 50 0 8
vertex 55.5 0 9
vertex 0 0 9
endloop
endfacet
facet normal 0 -1 0
outer loop
vertex 50 0 8
vertex 0 0 9
vertex 0 0 8
endloop
endfacet
facet normal 0 -1 0
outer loop
vertex 110 0 8
vertex 160 0 8
vertex 160 0 9
endloop
endfacet
facet normal 0 -1 0
outer loop
vertex 110 0 8
vertex 160 0 9
vertex 103.2 0 9
endloop
endfacet
facet normal 0 -1 0
outer loop
vertex 110 0 8
vertex 103.2 0 9
vertex 103.2 0 8
endloop
endfacet
facet normal 1 0 0
outer loop
vertex 55.5 17.6 8
vertex 55.5 17.6 9
vertex 55.5 2.1999999999999993 9
endloop
endfacet
facet normal 1 0 0
outer loop
vertex 55.5 17.6 8
vertex 55.5 2.1999999999999993 9
vertex 55.5 0 9
endloop
endfacet
facet normal 1 0 0
outer loop
vertex 55.5 17.6 8
vertex 55.5 0 9
vertex 55.5 0 8
endloop
endfacet
facet normal -1 0 0
outer loop
vertex 103.2 0 9
vertex 103.2 2.1999999999999993 9
vertex 103.2 17.6 9
endloop
endfacet
facet normal -1 0 0
outer loop
vertex 103.2 0 9
vertex 103.2 17.6 9
vertex 103.2 17.6 8
endloop
endfacet
facet normal -1 0 0
outer loop
vertex 103.2 0 9
vertex 103.2 17.6 8
vertex 103.2 0 8
endloop
endfacet
facet normal 0 -1 0
outer loop
vertex 103.2 17.6 8
vertex 103.2 17.6 9
vertex 55.5 17.6 9
endloop
endfacet
facet normal 0 -1 0
outer loop
vertex 103.2 17.6 8
vertex 55.5 17.6 9
vertex 55.5 17.6 8
endloop
endfacet
facet normal 0 0 1
outer loop
vertex 55.5 0 9
vertex 55.5 2.1999999999999993 9
vertex 9 2.1999999999999993 9
endloop
endfacet
facet normal 0 0 1
outer loop
vertex 55.5 0 9
vertex 9 2.1999999999999993 9
vertex 0 2.1999999999999993 9
endloop
endfacet
facet normal 0 0 1
outer loop
vertex 55.5 0 9
vertex 0 2.1999999999999993 9
vertex 0 0 9
endloop
endfacet
facet normal 0 0 1
outer loop
vertex 160 0 9
vertex 160 2.1999999999999993 9
vertex 151 2.1999999999999993 9
endloop
endfacet
facet normal 0 0 1
outer loop
vertex 160 0 9
vertex 151 2.1999999999999993 9
vertex 103.2 2.1999999999999993 9
endloop
endfacet
facet normal 0 0 1
outer loop
vertex 160 0 9
vertex 103.2 2.1999999999999993 9
vertex 103.2 0 9
endloop
endfacet
facet normal 0 0 1
outer loop
vertex 55.5 2.1999999999999993 9
vertex 55.5 17.6 9
vertex 9 17.6 9
endloop
endfacet
facet normal 0 0 1
outer loop
vertex 55.5 2.1999999999999993 9
vertex 9 17.6 9
vertex 9 2.1999999999999993 9
endloop
endfacet
facet normal 0 0 1
outer loop
vertex 151 2.1999999999999993 9
vertex 151 17.6 9
vertex 103.2 17.6 9
endloop
endfacet
facet normal 0 0 1
outer loop
vertex 151 2.1999999999999993 9
vertex 103.2 17.6 9
vertex 103.2 2.1999999999999993 9
endloop
endfacet
facet normal 0 0 1
outer loop
vertex 55.5 17.6 9
vertex 103.2 17.6 9
vertex 151 17.6 9
endloop
endfacet
facet normal 0 0 1
outer loop
vertex 55.5 17.6 9
vertex 151 17.6 9
vertex 151 30 9
endloop
endfacet
facet normal 0 0 1
outer loop
vertex 55.5 17.6 9
vertex 151 30 9
vertex 9 30 9
endloop
endfacet
facet normal 0 0 1
outer loop
vertex 55.5 17.6 9
vertex 9 30 9
vertex 9 17.6 9
endloop
endfacet
facet normal 0 0 -1
outer loop
vertex 151 30 8
vertex 151 25 8
vertex 150 25 8
endloop
endfacet
facet normal 0 0 -1
outer loop
vertex 151 30 8
vertex 150 25 8
vertex 111 25 8
endloop
endfacet
facet normal 0 0 -1
outer loop
vertex 151 30 8
vertex 111 25 8
vertex 49 25 8
endloop
endfacet
facet normal 0 0 -1
outer loop
vertex 151 30 8
vertex 49 25 8
vertex 10 25 8
endloop
endfacet
facet normal 0 0 -1
outer loop
vertex 151 30 8
vertex 10 25 8
vertex 9 25 8
endloop
endfacet
facet normal 0 0 -1
outer loop
vertex 151 30 8
vertex 9 25 8
vertex 9 30 8
endloop
endfacet
facet normal 0 0 -1
outer loop
vertex 110 24 8
vertex 110 17.6 8
vertex 103.2 17.6 8
endloop
endfacet
facet normal 0 0 -1
outer loop
vertex 110 24 8
vertex 103.2 17.6 8
vertex 55.5 17.6 8
endloop
endfacet
facet normal 0 0 -1
outer loop
vertex 110 24 8
vertex 55.5 17.6 8
vertex 50 17.6 8
endloop
endfacet
facet normal 0 0 -1
outer loop
vertex 110 24 8
vertex 50 17.6 8
vertex 50 24 8
endloop
endfacet
facet normal 0 0 -1
outer loop
vertex 49 25 8
vertex 49 2.1999999999999993 8
vertex 10 2.1999999999999993 8
endloop
endfacet
facet normal 0 0 -1
outer loop
vertex 49 25 8
vertex 10 2.1999999999999993 8
vertex 10 25 8
endloop
endfacet
facet normal 0 0 -1
outer loop
vertex 150 25 8
vertex 150 2.1999999999999993 8
vertex 111 2.1999999999999993 8
endloop
endfacet
facet normal 0 0 -1
outer loop
vertex 150 25 8
vertex 111 2.1999999999999993 8
vertex 111 25 8
endloop
endfacet
facet normal 0 0 -1
outer loop
vertex 55.5 17.6 8
vertex 55.5 0 8
vertex 50 0 8
endloop
endfacet
facet normal 0 0 -1
outer loop
vertex 55.5 17.6 8
vertex 50 0 8
vertex 50 17.6 8
endloop
endfacet
facet normal 0 0 -1
outer loop
vertex 110 17.6 8
vertex 110 0 8
vertex 103.2 0 8
endloop
endfacet
facet normal 0 0 -1
outer loop
vertex 110 17.6 8
vertex 103.2 0 8
vertex 103.2 17.6 8
endloop
endfacet
facet normal 0 1 8.881784197001252e-16
outer loop
vertex 9 2.1999999999999993 9
vertex 9 2.2 8
vertex 2.2 2.2 8
endloop
endfacet
facet normal 0 1 8.881784197001252e-16
outer loop
vertex 9 2.1999999999999993 9
vertex 2.2 2.2 8
vertex 0 2.2 8
endloop
endfacet
facet normal 0 1 8.881784197001252e-16
outer loop
vertex 9 2.1999999999999993 9
vertex 0 2.2 8
vertex 0 2.1999999999999993 9
endloop
endfacet
facet normal 0 1 8.881784197001252e-16
outer loop
vertex 160 2.1999999999999993 9
vertex 160 2.2 8
vertex 157.8 2.2 8
endloop
endfacet
facet normal 0 1 8.881784197001252e-16
outer loop
vertex 160 2.1999999999999993 9
vertex 157.8 2.2 8
vertex 151 2.2 8
endloop
endfacet
facet normal 0 1 8.881784197001252e-16
outer loop
vertex 160 2.1999999999999993 9
vertex 151 2.2 8
vertex 151 2.1999999999999993 9
endloop
endfacet
facet normal 0 1 3.552713678800501e-16
outer loop
vertex 150 2.1999999999999993 8
vertex 150 2.2 5.5
vertex 112 2.2 5.5
endloop
endfacet
facet normal 0 1 3.552713678800501e-16
outer loop
vertex 150 2.1999999999999993 8
vertex 112 2.2 5.5
vertex 111 2.2 5.5
endloop
endfacet
facet normal 0 1 3.552713678800501e-16
outer loop
vertex 150 2.1999999999999993 8
vertex 111 2.2 5.5
vertex 111 2.1999999999999993 8
endloop
endfacet
facet normal 0 1 0
outer loop
vertex 150 2.2 5.5
vertex 150 2.2 3.5
vertex 112 2.2 3.5
endloop
endfacet
facet normal 0 1 0
outer loop
vertex 150 2.2 5.5
vertex 112 2.2 3.5
vertex 112 2.2 5.5
endloop
endfacet
facet normal 0 1 0
outer loop
vertex 2.2 2.2 8
vertex 2.2 2.2 1
vertex 0 2.2 1
endloop
endfacet
facet normal 0 1 0
outer loop
vertex 2.2 2.2 8
vertex 0 2.2 1
vertex 0 2.2 8
endloop
endfacet
facet normal -1 0 0
outer loop
vertex 49 2.1999999999999993 8
vertex 49 2.2 5.5
vertex 49 2.1999999999999993 3.5
endloop
endfacet
facet normal -1 0 0
outer loop
vertex 49 2.1999999999999993 8
vertex 49 2.1999999999999993 3.5
vertex 49 2.1999999999999993 1
endloop
endfacet
facet normal -1 0 0
outer loop
vertex 49 2.1999999999999993 8
vertex 49 2.1999999999999993 1
vertex 10 2.1999999999999993 1
endloop
endfacet
facet normal -1 0 0
outer loop
vertex 49 2.1999999999999993 8
vertex 10 2.1999999999999993 1
vertex 10 2.1999999999999993 8
endloop
endfacet
facet normal 0 1 -3.552713678800501e-16
outer loop
vertex 112 2.2 3.5
vertex 150 2.2 3.5
vertex 150 2.1999999999999993 1
endloop
endfacet
facet normal 0 1 -3.552713678800501e-16
outer loop
vertex 112 2.2 3.5
vertex 150 2.1999999999999993 1
vertex 111 2.1999999999999993 1
endloop
endfacet
facet normal 0 1 -3.552713678800501e-16
outer loop
vertex 112 2.2 3.5
vertex 111 2.1999999999999993 1
vertex 111 2.2 3.5
endloop
endfacet
facet normal 0 1 0
outer loop
vertex 160 2.2 8
vertex 160 2.2 1
vertex 157.8 2.2 1
endloop
endfacet
facet normal 0 1 0
outer loop
vertex 160 2.2 8
vertex 157.8 2.2 1
vertex 157.8 2.2 8
endloop
endfacet
facet normal 0 1 0
outer loop
vertex 2.2 2.2 1
vertex 9 2.2 1
vertex 9 2.2 0
endloop
endfacet
facet normal 0 1 0
outer loop
vertex 2.2 2.2 1
vertex 9 2.2 0
vertex 0 2.2 0
endloop
endfacet
facet normal 0 1 0
outer loop
vertex 2.2 2.2 1
vertex 0 2.2 0
vertex 0 2.2 1
endloop
endfacet
facet normal 0 1 0
outer loop
vertex 157.8 2.2 1
vertex 160 2.2 1
vertex 160 2.2 0
endloop
endfacet
facet normal 0 1 0
outer loop
vertex 157.8 2.2 1
vertex 160 2.2 0
vertex 151 2.2 0
endloop
endfacet
facet normal 0 1 0
outer loop
vertex 157.8 2.2 1
vertex 151 2.2 0
vertex 151 2.2 1
endloop
endfacet
facet normal -1 0 0
outer loop
vertex 9 17.6 9
vertex 9 30 9
vertex 9 30 8
endloop
endfacet
facet normal -1 0 0
outer loop
vertex 9 17.6 9
vertex 9 30 8
vertex 9 25 8
endloop
endfacet
facet normal -1 0 0
outer loop
vertex 9 17.6 9
vertex 9 25 8
vertex 9 2.2 8
endloop
endfacet
facet normal -1 0 0
outer loop
vertex 9 17.6 9
vertex 9 2.2 8
vertex 9 2.1999999999999993 9
endloop
endfacet
facet normal -1 0 0
outer loop
vertex 9 25 1
vertex 9 30 1
vertex 9 30 0
endloop
endfacet
facet normal -1 0 0
outer loop
vertex 9 25 1
vertex 9 30 0
vertex 9 2.2 0
endloop
endfacet
facet normal -1 0 0
outer loop
vertex 9 25 1
vertex 9 2.2 0
vertex 9 2.2 1
endloop
endfacet
facet normal -1 0 0
outer loop
vertex 0 2.1999999999999993 9
vertex 0 2.2 8
vertex 0 2.2 1
endloop
endfacet
facet normal -1 0 0
outer loop
vertex 0 2.1999999999999993 9
vertex 0 2.2 1
vertex 0 2.2 0
endloop
endfacet
facet normal -1 0 0
outer loop
vertex 0 2.1999999999999993 9
vertex 0 2.2 0
vertex 0 0 0
endloop
endfacet
facet normal -1 0 0
outer loop
vertex 0 2.1999999999999993 9
vertex 0 0 0
vertex 0 0 1
endloop
endfacet
facet normal -1 0 0
outer loop
vertex 0 2.1999999999999993 9
vertex 0 0 1
vertex 0 0 8
endloop
endfacet
facet normal -1 0 0
outer loop
vertex 0 2.1999999999999993 9
vertex 0 0 8
vertex 0 0 9
endloop
endfacet
facet normal 0 0 -1
outer loop
vertex 151 30 0
vertex 151 2.2 0
vertex 9 2.2 0
endloop
endfacet
facet normal 0 0 -1
outer loop
vertex 151 30 0
vertex 9 2.2 0
vertex 9 30 0
endloop
endfacet
facet normal 0 0 -1
outer loop
vertex 9 2.2 0
vertex 151 2.2 0
vertex 160 2.2 0
endloop
endfacet
facet normal 0 0 -1
outer loop
vertex 9 2.2 0
vertex 160 2.2 0
vertex 160 0 0
endloop
endfacet
facet normal 0 0 -1
outer loop
vertex 9 2.2 0
vertex 160 0 0
vertex 0 0 0
endloop
endfacet
facet normal 0 0 -1
outer loop
vertex 9 2.2 0
vertex 0 0 0
vertex 0 2.2 0
endloop
endfacet
facet normal 1 0 0
outer loop
vertex 151 30 0
vertex 151 30 1
vertex 151 25 1
endloop
endfacet
facet normal 1 0 0
outer loop
vertex 151 30 0
vertex 151 25 1
vertex 151 2.2 1
endloop
endfacet
facet normal 1 0 0
outer loop
vertex 151 30 0
vertex 151 2.2 1
vertex 151 2.2 0
endloop
endfacet
facet normal 1 0 0
outer loop
vertex 151 25 8
vertex 151 30 8
vertex 151 30 9
endloop
endfacet
facet normal 1 0 0
outer loop
vertex 151 25 8
vertex 151 30 9
vertex 151 17.6 9
endloop
endfacet
facet normal 1 0 0
outer loop
vertex 151 25 8
vertex 151 17.6 9
vertex 151 2.1999999999999993 9
endloop
endfacet
facet normal 1 0 0
outer loop
vertex 151 25 8
vertex 151 2.1999999999999993 9
vertex 151 2.2 8
endloop
endfacet
facet normal 1 0 0
outer loop
vertex 160 2.2 0
vertex 160 2.2 1
vertex 160 2.2 8
endloop
endfacet
facet normal 1 0 0
outer loop
vertex 160 2.2 0
vertex 160 2.2 8
vertex 160 2.1999999999999993 9
endloop
endfacet
facet normal 1 0 0
outer loop
vertex 160 2.2 0
vertex 160 2.1999999999999993 9
vertex 160 0 9
endloop
endfacet
facet normal 1 0 0
outer loop
vertex 160 2.2 0
vertex 160 0 9
vertex 160 0 8
endloop
endfacet
facet normal 1 0 0
outer loop
vertex 160 2.2 0
vertex 160 0 8
vertex 160 0 1
endloop
endfacet
facet normal 1 0 0
outer loop
vertex 160 2.2 0
vertex 160 0 1
vertex 160 0 0
endloop
endfacet
facet normal 0 0 -1
outer loop
vertex 9 25 1
vertex 9 2.2 1
vertex 2.2 2.2 1
endloop
endfacet
facet normal 0 0 -1
outer loop
vertex 9 25 1
vertex 2.2 2.2 1
vertex 2.2 25 1
endloop
endfacet
facet normal 0 0 -1
outer loop
vertex 157.8 25 1
vertex 157.8 2.2 1
vertex 151 2.2 1
endloop
endfacet
facet normal 0 0 -1
outer loop
vertex 157.8 25 1
vertex 151 2.2 1
vertex 151 25 1
endloop
endfacet
facet normal 0 0 1
outer loop
vertex 9 2.2 8
vertex 9 25 8
vertex 2.2 25 8
endloop
endfacet
facet normal 0 0 1
outer loop
vertex 9 2.2 8
vertex 2.2 25 8
vertex 2.2 2.2 8
endloop
endfacet
facet normal 0 0 1
outer loop
vertex 157.8 2.2 8
vertex 157.8 25 8
vertex 151 25 8
endloop
endfacet
facet normal 0 0 1
outer loop
vertex 157.8 2.2 8
vertex 151 25 8
vertex 151 2.2 8
endloop
endfacet
facet normal -1 0 0
outer loop
vertex 2.2 25 1
vertex 2.2 2.2 1
vertex 2.2 2.2 8
endloop
endfacet
facet normal -1 0 0
outer loop
vertex 2.2 25 1
vertex 2.2 2.2 8
vertex 2.2 25 8
endloop
endfacet
facet normal 1 0 0
outer loop
vertex 157.8 25 1
vertex 157.8 25 8
vertex 157.8 2.2 8
endloop
endfacet
facet normal 1 0 0
outer loop
vertex 157.8 25 1
vertex 157.8 2.2 8
vertex 157.8 2.2 1
endloop
endfacet
facet normal 0 1 0
outer loop
vertex 151 30 9
vertex 151 30 8
vertex 9 30 8
endloop
endfacet
facet normal 0 1 0
outer loop
vertex 151 30 9
vertex 9 30 8
vertex 9 30 9
endloop
endfacet
facet normal 0 1 0
outer loop
vertex 151 30 1
vertex 151 30 0
vertex 9 30 0
endloop
endfacet
facet normal 0 1 0
outer loop
vertex 151 30 1
vertex 9 30 0
vertex 9 30 1
endloop
endfacet
facet normal 1 0 0
outer loop
vertex 10 25 1
vertex 10 25 8
vertex 10 2.1999999999999993 8
endloop
endfacet
facet normal 1 0 0
outer loop
vertex 10 25 1
vertex 10 2.1999999999999993 8
vertex 10 2.1999999999999993 1
endloop
endfacet
facet normal 0 1 0
outer loop
vertex 9 25 8
vertex 10 25 8
vertex 10 25 1
endloop
endfacet
facet normal 0 1 0
outer loop
vertex 9 25 8
vertex 10 25 1
vertex 9 25 1
endloop
endfacet
facet normal 0 1 0
outer loop
vertex 9 25 8
vertex 9 25 1
vertex 2.2 25 1
endloop
endfacet
facet normal 0 1 0
outer loop
vertex 9 25 8
vertex 2.2 25 1
vertex 2.2 25 8
endloop
endfacet
facet normal 0 1 0
outer loop
vertex 111 25 8
vertex 111 25 5.5
vertex 111 25 3.5
endloop
endfacet
facet normal 0 1 0
outer loop
vertex 111 25 8
vertex 111 25 3.5
vertex 111 25 1
endloop
endfacet
facet normal 0 1 0
outer loop
vertex 111 25 8
vertex 111 25 1
vertex 49 25 1
endloop
endfacet
facet normal 0 1 0
outer loop
vertex 111 25 8
vertex 49 25 1
vertex 49 25 3.5
endloop
endfacet
facet normal 0 1 0
outer loop
vertex 111 25 8
vertex 49 25 3.5
vertex 49 25 5.5
endloop
endfacet
facet normal 0 1 0
outer loop
vertex 111 25 8
vertex 49 25 5.5
vertex 49 25 8
endloop
endfacet
facet normal 0 1 0
outer loop
vertex 151 25 8
vertex 157.8 25 8
vertex 157.8 25 1
endloop
endfacet
facet normal 0 1 0
outer loop
vertex 151 25 8
vertex 157.8 25 1
vertex 151 25 1
endloop
endfacet
facet normal 0 1 0
outer loop
vertex 151 25 8
vertex 151 25 1
vertex 150 25 1
endloop
endfacet
facet normal 0 1 0
outer loop
vertex 151 25 8
vertex 150 25 1
vertex 150 25 8
endloop
endfacet
facet normal 1 0 0
outer loop
vertex 150 2.2 3.5
vertex 150 2.2 5.5
vertex 150 2.1999999999999993 8
endloop
endfacet
facet normal 1 0 0
outer loop
vertex 150 2.2 3.5
vertex 150 2.1999999999999993 8
vertex 150 25 8
endloop
endfacet
facet normal 1 0 0
outer loop
vertex 150 2.2 3.5
vertex 150 25 8
vertex 150 25 1
endloop
endfacet
facet normal 1 0 0
outer loop
vertex 150 2.2 3.5
vertex 150 25 1
vertex 150 2.1999999999999993 1
endloop
endfacet
facet normal 1 0 0
outer loop
vertex 49 2.1999999999999993 3.5
vertex 49 2.2 5.5
vertex 49 2 5.5
endloop
endfacet
facet normal 1 0 0
outer loop
vertex 49 2.1999999999999993 3.5
vertex 49 2 5.5
vertex 49 2 3.5
endloop
endfacet
facet normal 0 1 0
outer loop
vertex 50 2 5.5
vertex 50 2 3.5
vertex 49 2 3.5
endloop
endfacet
facet normal 0 1 0
outer loop
vertex 50 2 5.5
vertex 49 2 3.5
vertex 49 2 5.5
endloop
endfacet
facet normal 0 1 0
outer loop
vertex 112 2 5.5
vertex 112 2 3.5
vertex 110 2 3.5
endloop
endfacet
facet normal 0 1 0
outer loop
vertex 112 2 5.5
vertex 110 2 3.5
vertex 110 2 5.5
endloop
endfacet
facet normal 0 -1 0
outer loop
vertex 50 22 3.5
vertex 50 22 5.5
vertex 49 22 5.5
endloop
endfacet
facet normal 0 -1 0
outer loop
vertex 50 22 3.5
vertex 49 22 5.5
vertex 49 22 3.5
endloop
endfacet
facet normal 0 -1 0
outer loop
vertex 111 22 3.5
vertex 111 22 5.5
vertex 110 22 5.5
endloop
endfacet
facet normal 0 -1 0
outer loop
vertex 111 22 3.5
vertex 110 22 5.5
vertex 110 22 3.5
endloop
endfacet
facet normal 0 0 1
outer loop
vertex 112 2 3.5
vertex 112 2.2 3.5
vertex 111 2.2 3.5
endloop
endfacet
facet normal 0 0 1
outer loop
vertex 112 2 3.5
vertex 111 2.2 3.5
vertex 110 2.1999999999999993 3.5
endloop
endfacet
facet normal 0 0 1
outer loop
vertex 112 2 3.5
vertex 110 2.1999999999999993 3.5
vertex 110 2 3.5
endloop
endfacet
facet normal 0 0 1
outer loop
vertex 50 2 3.5
vertex 50 22 3.5
vertex 49 22 3.5
endloop
endfacet
facet normal 0 0 1
outer loop
vertex 50 2 3.5
vertex 49 22 3.5
vertex 49 2.1999999999999993 3.5
endloop
endfacet
facet normal 0 0 1
outer loop
vertex 50 2 3.5
vertex 49 2.1999999999999993 3.5
vertex 49 2 3.5
endloop
endfacet
facet normal 0 0 1
outer loop
vertex 111 2.2 3.5
vertex 111 22 3.5
vertex 110 22 3.5
endloop
endfacet
facet normal 0 0 1
outer loop
vertex 111 2.2 3.5
vertex 110 22 3.5
vertex 110 2.1999999999999993 3.5
endloop
endfacet
facet normal 0 0 -1
outer loop
vertex 111 22 5.5
vertex 111 2.2 5.5
vertex 110 2.1999999999999993 5.5
endloop
endfacet
facet normal 0 0 -1
outer loop
vertex 111 22 5.5
vertex 110 2.1999999999999993 5.5
vertex 110 22 5.5
endloop
endfacet
facet normal 0 0 -1
outer loop
vertex 50 22 5.5
vertex 50 2 5.5
vertex 49 2 5.5
endloop
endfacet
facet normal 0 0 -1
outer loop
vertex 50 22 5.5
vertex 49 2 5.5
vertex 49 2.2 5.5
endloop
endfacet
facet normal 0 0 -1
outer loop
vertex 50 22 5.5
vertex 49 2.2 5.5
vertex 49 22 5.5
endloop
endfacet
facet normal 0 0 -1
outer loop
vertex 111 2.2 5.5
vertex 112 2.2 5.5
vertex 112 2 5.5
endloop
endfacet
facet normal 0 0 -1
outer loop
vertex 111 2.2 5.5
vertex 112 2 5.5
vertex 110 2 5.5
endloop
endfacet
facet normal 0 0 -1
outer loop
vertex 111 2.2 5.5
vertex 110 2 5.5
vertex 110 2.1999999999999993 5.5
endloop
endfacet
facet normal 1 0 0
outer loop
vertex 50 24 1
vertex 50 24 3.5
vertex 50 22 3.5
endloop
endfacet
facet normal 1 0 0
outer loop
vertex 50 24 1
vertex 50 22 3.5
vertex 50 2 3.5
endloop
endfacet
facet normal 1 0 0
outer loop
vertex 50 24 1
vertex 50 2 3.5
vertex 50 0 3.5
endloop
endfacet
facet normal 1 0 0
outer loop
vertex 50 24 1
vertex 50 0 3.5
vertex 50 0 1
endloop
endfacet
facet normal 1 0 0
outer loop
vertex 50 2 3.5
vertex 50 2 5.5
vertex 50 0 5.5
endloop
endfacet
facet normal 1 0 0
outer loop
vertex 50 2 3.5
vertex 50 0 5.5
vertex 50 0 3.5
endloop
endfacet
facet normal 1 0 0
outer loop
vertex 50 24 3.5
vertex 50 24 5.5
vertex 50 22 5.5
endloop
endfacet
facet normal 1 0 0
outer loop
vertex 50 24 3.5
vertex 50 22 5.5
vertex 50 22 3.5
endloop
endfacet
facet normal 1 0 0
outer loop
vertex 50 2 5.5
vertex 50 22 5.5
vertex 50 24 5.5
endloop
endfacet
facet normal 1 0 0
outer loop
vertex 50 2 5.5
vertex 50 24 5.5
vertex 50 24 8
endloop
endfacet
facet normal 1 0 0
outer loop
vertex 50 2 5.5
vertex 50 24 8
vertex 50 17.6 8
endloop
endfacet
facet normal 1 0 0
outer loop
vertex 50 2 5.5
vertex 50 17.6 8
vertex 50 0 8
endloop
endfacet
facet normal 1 0 0
outer loop
vertex 50 2 5.5
vertex 50 0 8
vertex 50 0 5.5
endloop
endfacet
facet normal -1 0 0
outer loop
vertex 49 25 8
vertex 49 25 5.5
vertex 49 22 5.5
endloop
endfacet
facet normal -1 0 0
outer loop
vertex 49 25 8
vertex 49 22 5.5
vertex 49 2.2 5.5
endloop
endfacet
facet normal -1 0 0
outer loop
vertex 49 25 8
vertex 49 2.2 5.5
vertex 49 2.1999999999999993 8
endloop
endfacet
facet normal -1 0 0
outer loop
vertex 49 25 5.5
vertex 49 25 3.5
vertex 49 22 3.5
endloop
endfacet
facet normal -1 0 0
outer loop
vertex 49 25 5.5
vertex 49 22 3.5
vertex 49 22 5.5
endloop
endfacet
facet normal -1 0 0
outer loop
vertex 49 22 3.5
vertex 49 25 3.5
vertex 49 25 1
endloop
endfacet
facet normal -1 0 0
outer loop
vertex 49 22 3.5
vertex 49 25 1
vertex 49 2.1999999999999993 1
endloop
endfacet
facet normal -1 0 0
outer loop
vertex 49 22 3.5
vertex 49 2.1999999999999993 1
vertex 49 2.1999999999999993 3.5
endloop
endfacet
facet normal -1 0 0
outer loop
vertex 112 2 5.5
vertex 112 2.2 5.5
vertex 112 2.2 3.5
endloop
endfacet
facet normal -1 0 0
outer loop
vertex 112 2 5.5
vertex 112 2.2 3.5
vertex 112 2 3.5
endloop
endfacet
facet normal -1 0 0
outer loop
vertex 110 17.6 8
vertex 110 24 8
vertex 110 24 5.5
endloop
endfacet
facet normal -1 0 0
outer loop
vertex 110 17.6 8
vertex 110 24 5.5
vertex 110 22 5.5
endloop
endfacet
facet normal -1 0 0
outer loop
vertex 110 17.6 8
vertex 110 22 5.5
vertex 110 2.1999999999999993 5.5
endloop
endfacet
facet normal -1 0 0
outer loop
vertex 110 17.6 8
vertex 110 2.1999999999999993 5.5
vertex 110 2 5.5
endloop
endfacet
facet normal -1 0 0
outer loop
vertex 110 17.6 8
vertex 110 2 5.5
vertex 110 0 5.5
endloop
endfacet
facet normal -1 0 0
outer loop
vertex 110 17.6 8
vertex 110 0 5.5
vertex 110 0 8
endloop
endfacet
facet normal -1 0 0
outer loop
vertex 110 2 5.5
vertex 110 2 3.5
vertex 110 0 3.5
endloop
endfacet
facet normal -1 0 0
outer loop
vertex 110 2 5.5
vertex 110 0 3.5
vertex 110 0 5.5
endloop
endfacet
facet normal -1 0 0
outer loop
vertex 110 24 5.5
vertex 110 24 3.5
vertex 110 22 3.5
endloop
endfacet
facet normal -1 0 0
outer loop
vertex 110 24 5.5
vertex 110 22 3.5
vertex 110 22 5.5
endloop
endfacet
facet normal -1 0 0
outer loop
vertex 110 2 3.5
vertex 110 2.1999999999999993 3.5
vertex 110 22 3.5
endloop
endfacet
facet normal -1 0 0
outer loop
vertex 110 2 3.5
vertex 110 22 3.5
vertex 110 24 3.5
endloop
endfacet
facet normal -1 0 0
outer loop
vertex 110 2 3.5
vertex 110 24 3.5
vertex 110 24 1
endloop
endfacet
facet normal -1 0 0
outer loop
vertex 110 2 3.5
vertex 110 24 1
vertex 110 0 1
endloop
endfacet
facet normal -1 0 0
outer loop
vertex 110 2 3.5
vertex 110 0 1
vertex 110 0 3.5
endloop
endfacet
facet normal 1 0 0
outer loop
vertex 111 25 1
vertex 111 25 3.5
vertex 111 22 3.5
endloop
endfacet
facet normal 1 0 0
outer loop
vertex 111 25 1
vertex 111 22 3.5
vertex 111 2.2 3.5
endloop
endfacet
facet normal 1 0 0
outer loop
vertex 111 25 1
vertex 111 2.2 3.5
vertex 111 2.1999999999999993 1
endloop
endfacet
facet normal 1 0 0
outer loop
vertex 111 25 3.5
vertex 111 25 5.5
vertex 111 22 5.5
endloop
endfacet
facet normal 1 0 0
outer loop
vertex 111 25 3.5
vertex 111 22 5.5
vertex 111 22 3.5
endloop
endfacet
facet normal 1 0 0
outer loop
vertex 111 22 5.5
vertex 111 25 5.5
vertex 111 25 8
endloop
endfacet
facet normal 1 0 0
outer loop
vertex 111 22 5.5
vertex 111 25 8
vertex 111 2.1999999999999993 8
endloop
endfacet
facet normal 1 0 0
outer loop
vertex 111 22 5.5
vertex 111 2.1999999999999993 8
vertex 111 2.2 5.5
endloop
endfacet
endsolid csg.js
