solid csg.js
facet normal 0 -1 0
outer loop
vertex 52 16.5 0
vertex 52 16.5 1.7000000000000002
vertex 52 16.5 3.8
endloop
endfacet
facet normal 0 -1 0
outer loop
vertex 52 16.5 0
vertex 52 16.5 3.8
vertex 52 16.5 5.5
endloop
endfacet
facet normal 0 -1 0
outer loop
vertex 52 16.5 0
vertex 52 16.5 5.5
vertex 7.5 16.5 5.5
endloop
endfacet
facet normal 0 -1 0
outer loop
vertex 52 16.5 0
vertex 7.5 16.5 5.5
vertex 7.5 16.5 3.8
endloop
endfacet
facet normal 0 -1 0
outer loop
vertex 52 16.5 0
vertex 7.5 16.5 3.8
vertex 7.5 16.5 1.7000000000000002
endloop
endfacet
facet normal 0 -1 0
outer loop
vertex 52 16.5 0
vertex 7.5 16.5 1.7000000000000002
vertex 7.5 16.5 0
endloop
endfacet
facet normal 0 0 -1
outer loop
vertex 59.5 24 0
vertex 59.5 16.5 0
vertex 52 16.5 0
endloop
endfacet
facet normal 0 0 -1
outer loop
vertex 59.5 24 0
vertex 52 16.5 0
vertex 7.5 16.5 0
endloop
endfacet
facet normal 0 0 -1
outer loop
vertex 59.5 24 0
vertex 7.5 16.5 0
vertex 0 16.5 0
endloop
endfacet
facet normal 0 0 -1
outer loop
vertex 59.5 24 0
vertex 0 16.5 0
vertex 0 24 0
endloop
endfacet
facet normal 0 0 -1
outer loop
vertex 7.5 16.5 0
vertex 7.5 5 0
vertex 0 5 0
endloop
endfacet
facet normal 0 0 -1
outer loop
vertex 7.5 16.5 0
vertex 0 5 0
vertex 0 16.5 0
endloop
endfacet
facet normal 0 0 -1
outer loop
vertex 59.5 16.5 0
vertex 59.5 5 0
vertex 52 5 0
endloop
endfacet
facet normal 0 0 -1
outer loop
vertex 59.5 16.5 0
vertex 52 5 0
vertex 52 16.5 0
endloop
endfacet
facet normal 0 0 1
outer loop
vertex 7.5 5 5.5
vertex 7.5 16.5 5.5
vertex 0 16.5 5.5
endloop
endfacet
facet normal 0 0 1
outer loop
vertex 7.5 5 5.5
vertex 0 16.5 5.5
vertex 0 5 5.5
endloop
endfacet
facet normal 0 0 1
outer loop
vertex 59.5 5 5.5
vertex 59.5 16.5 5.5
vertex 52 16.5 5.5
endloop
endfacet
facet normal 0 0 1
outer loop
vertex 59.5 5 5.5
vertex 52 16.5 5.5
vertex 52 5 5.5
endloop
endfacet
facet normal 0 0 1
outer loop
vertex 7.5 16.5 5.5
vertex 52 16.5 5.5
vertex 59.5 16.5 5.5
endloop
endfacet
facet normal 0 0 1
outer loop
vertex 7.5 16.5 5.5
vertex 59.5 16.5 5.5
vertex 59.5 24 5.5
endloop
endfacet
facet normal 0 0 1
outer loop
vertex 7.5 16.5 5.5
vertex 59.5 24 5.5
vertex 0 24 5.5
endloop
endfacet
facet normal 0 0 1
outer loop
vertex 7.5 16.5 5.5
vertex 0 24 5.5
vertex 0 16.5 5.5
endloop
endfacet
facet normal 0 -1 0
outer loop
vertex 7.5 5 0
vertex 7.5 5 1.7
vertex 0 5 1.7
endloop
endfacet
facet normal 0 -1 0
outer loop
vertex 7.5 5 0
vertex 0 5 1.7
vertex 0 5 0
endloop
endfacet
facet normal 0 -1 0
outer loop
vertex 59.5 5 0
vertex 59.5 5 1.7
vertex 52 5 1.7
endloop
endfacet
facet normal 0 -1 0
outer loop
vertex 59.5 5 0
vertex 52 5 1.7
vertex 52 5 0
endloop
endfacet
facet normal 0 -1 0
outer loop
vertex 7.5 5 3.8
vertex 7.5 5 5.5
vertex 0 5 5.5
endloop
endfacet
facet normal 0 -1 0
outer loop
vertex 7.5 5 3.8
vertex 0 5 5.5
vertex 0 5 3.8
endloop
endfacet
facet normal 0 -1 0
outer loop
vertex 59.5 5 3.8
vertex 59.5 5 5.5
vertex 52 5 5.5
endloop
endfacet
facet normal 0 -1 0
outer loop
vertex 59.5 5 3.8
vertex 52 5 5.5
vertex 52 5 3.8
endloop
endfacet
facet normal 0 0 -1
outer loop
vertex 7.5 5 1.7
vertex 7.5 0 1.7
vertex 0 0 1.7
endloop
endfacet
facet normal 0 0 -1
outer loop
vertex 7.5 5 1.7
vertex 0 0 1.7
vertex 0 5 1.7
endloop
endfacet
facet normal 0 0 -1
outer loop
vertex 59.5 5 1.7
vertex 59.5 0 1.7
vertex 52 0 1.7
endloop
endfacet
facet normal 0 0 -1
outer loop
vertex 59.5 5 1.7
vertex 52 0 1.7
vertex 52 5 1.7
endloop
endfacet
facet normal -1 0 0
outer loop
vertex 0 16.5 5.5
vertex 0 24 5.5
vertex 0 24 4.75
endloop
endfacet
facet normal -1 0 0
outer loop
vertex 0 16.5 5.5
vertex 0 24 4.75
vertex 0 24 3.8
endloop
endfacet
facet normal -1 0 0
outer loop
vertex 0 16.5 5.5
vertex 0 24 3.8
vertex 0 5 3.8
endloop
endfacet
facet normal -1 0 0
outer loop
vertex 0 16.5 5.5
vertex 0 5 3.8
vertex 0 5 5.5
endloop
endfacet
facet normal -1 0 0
outer loop
vertex 0 5 3.8
vertex 0 24 3.8
vertex 0 24 3.25
endloop
endfacet
facet normal -1 0 0
outer loop
vertex 0 5 3.8
vertex 0 24 3.25
vertex 0 16.5 3.25
endloop
endfacet
facet normal -1 0 0
outer loop
vertex 0 5 3.8
vertex 0 16.5 3.25
vertex 0 6.5 3.25
endloop
endfacet
facet normal -1 0 0
outer loop
vertex 0 5 3.8
vertex 0 6.5 3.25
vertex 0 0 3.25
endloop
endfacet
facet normal -1 0 0
outer loop
vertex 0 5 3.8
vertex 0 0 3.25
vertex 0 0 3.8
endloop
endfacet
facet normal -1 0 0
outer loop
vertex 0 6.5 3.25
vertex 0 6.5 2.25
vertex 0 0 2.25
endloop
endfacet
facet normal -1 0 0
outer loop
vertex 0 6.5 3.25
vertex 0 0 2.25
vertex 0 0 3.25
endloop
endfacet
facet normal -1 0 0
outer loop
vertex 0 24 3.25
vertex 0 24 2.25
vertex 0 16.5 2.25
endloop
endfacet
facet normal -1 0 0
outer loop
vertex 0 24 3.25
vertex 0 16.5 2.25
vertex 0 16.5 3.25
endloop
endfacet
facet normal -1 0 0
outer loop
vertex 0 6.5 2.25
vertex 0 16.5 2.25
vertex 0 24 2.25
endloop
endfacet
facet normal -1 0 0
outer loop
vertex 0 6.5 2.25
vertex 0 24 2.25
vertex 0 24 1.7
endloop
endfacet
facet normal -1 0 0
outer loop
vertex 0 6.5 2.25
vertex 0 24 1.7
vertex 0 5 1.7
endloop
endfacet
facet normal -1 0 0
outer loop
vertex 0 6.5 2.25
vertex 0 5 1.7
vertex 0 0 1.7
endloop
endfacet
facet normal -1 0 0
outer loop
vertex 0 6.5 2.25
vertex 0 0 1.7
vertex 0 0 2.25
endloop
endfacet
facet normal -1 0 0
outer loop
vertex 0 24 1.7
vertex 0 24 0.75
vertex 0 24 0
endloop
endfacet
facet normal -1 0 0
outer loop
vertex 0 24 1.7
vertex 0 24 0
vertex 0 16.5 0
endloop
endfacet
facet normal -1 0 0
outer loop
vertex 0 24 1.7
vertex 0 16.5 0
vertex 0 5 0
endloop
endfacet
facet normal -1 0 0
outer loop
vertex 0 24 1.7
vertex 0 5 0
vertex 0 5 1.7
endloop
endfacet
facet normal 1 0 0
outer loop
vertex 59.5 16.5 0
vertex 59.5 24 0
vertex 59.5 24 0.75
endloop
endfacet
facet normal 1 0 0
outer loop
vertex 59.5 16.5 0
vertex 59.5 24 0.75
vertex 59.5 24 1.7
endloop
endfacet
facet normal 1 0 0
outer loop
vertex 59.5 16.5 0
vertex 59.5 24 1.7
vertex 59.5 5 1.7
endloop
endfacet
facet normal 1 0 0
outer loop
vertex 59.5 16.5 0
vertex 59.5 5 1.7
vertex 59.5 5 0
endloop
endfacet
facet normal 1 0 0
outer loop
vertex 59.5 5 1.7
vertex 59.5 24 1.7
vertex 59.5 24 2.25
endloop
endfacet
facet normal 1 0 0
outer loop
vertex 59.5 5 1.7
vertex 59.5 24 2.25
vertex 59.5 16.5 2.25
endloop
endfacet
facet normal 1 0 0
outer loop
vertex 59.5 5 1.7
vertex 59.5 16.5 2.25
vertex 59.5 6.5 2.25
endloop
endfacet
facet normal 1 0 0
outer loop
vertex 59.5 5 1.7
vertex 59.5 6.5 2.25
vertex 59.5 0 2.25
endloop
endfacet
facet normal 1 0 0
outer loop
vertex 59.5 5 1.7
vertex 59.5 0 2.25
vertex 59.5 0 1.7
endloop
endfacet
facet normal 1 0 0
outer loop
vertex 59.5 6.5 2.25
vertex 59.5 6.5 3.25
vertex 59.5 0 3.25
endloop
endfacet
facet normal 1 0 0
outer loop
vertex 59.5 6.5 2.25
vertex 59.5 0 3.25
vertex 59.5 0 2.25
endloop
endfacet
facet normal 1 0 0
outer loop
vertex 59.5 24 2.25
vertex 59.5 24 3.25
vertex 59.5 16.5 3.25
endloop
endfacet
facet normal 1 0 0
outer loop
vertex 59.5 24 2.25
vertex 59.5 16.5 3.25
vertex 59.5 16.5 2.25
endloop
endfacet
facet normal 1 0 0
outer loop
vertex 59.5 6.5 3.25
vertex 59.5 16.5 3.25
vertex 59.5 24 3.25
endloop
endfacet
facet normal 1 0 0
outer loop
vertex 59.5 6.5 3.25
vertex 59.5 24 3.25
vertex 59.5 24 3.8
endloop
endfacet
facet normal 1 0 0
outer loop
vertex 59.5 6.5 3.25
vertex 59.5 24 3.8
vertex 59.5 5 3.8
endloop
endfacet
facet normal 1 0 0
outer loop
vertex 59.5 6.5 3.25
vertex 59.5 5 3.8
vertex 59.5 0 3.8
endloop
endfacet
facet normal 1 0 0
outer loop
vertex 59.5 6.5 3.25
vertex 59.5 0 3.8
vertex 59.5 0 3.25
endloop
endfacet
facet normal 1 0 0
outer loop
vertex 59.5 24 3.8
vertex 59.5 24 4.75
vertex 59.5 24 5.5
endloop
endfacet
facet normal 1 0 0
outer loop
vertex 59.5 24 3.8
vertex 59.5 24 5.5
vertex 59.5 16.5 5.5
endloop
endfacet
facet normal 1 0 0
outer loop
vertex 59.5 24 3.8
vertex 59.5 16.5 5.5
vertex 59.5 5 5.5
endloop
endfacet
facet normal 1 0 0
outer loop
vertex 59.5 24 3.8
vertex 59.5 5 5.5
vertex 59.5 5 3.8
endloop
endfacet
facet normal 1 0 0
outer loop
vertex 7.5 16.5 0
vertex 7.5 16.5 1.7000000000000002
vertex 7.5 5 1.7
endloop
endfacet
facet normal 1 0 0
outer loop
vertex 7.5 16.5 0
vertex 7.5 5 1.7
vertex 7.5 5 0
endloop
endfacet
facet normal 1 0 0
outer loop
vertex 7.5 5 1.7
vertex 7.5 16.5 1.7000000000000002
vertex 7.5 16.5 3.8
endloop
endfacet
facet normal 1 0 0
outer loop
vertex 7.5 5 1.7
vertex 7.5 16.5 3.8
vertex 7.5 5 3.8
endloop
endfacet
facet normal 1 0 0
outer loop
vertex 7.5 5 1.7
vertex 7.5 5 3.8
vertex 7.5 0 3.8
endloop
endfacet
facet normal 1 0 0
outer loop
vertex 7.5 5 1.7
vertex 7.5 0 3.8
vertex 7.5 0 1.7
endloop
endfacet
facet normal 1 0 0
outer loop
vertex 7.5 16.5 3.8
vertex 7.5 16.5 5.5
vertex 7.5 5 5.5
endloop
endfacet
facet normal 1 0 0
outer loop
vertex 7.5 16.5 3.8
vertex 7.5 5 5.5
vertex 7.5 5 3.8
endloop
endfacet
facet normal -1 0 0
outer loop
vertex 52 16.5 5.5
vertex 52 16.5 3.8
vertex 52 5 3.8
endloop
endfacet
facet normal -1 0 0
outer loop
vertex 52 16.5 5.5
vertex 52 5 3.8
vertex 52 5 5.5
endloop
endfacet
facet normal -1 0 0
outer loop
vertex 52 5 3.8
vertex 52 16.5 3.8
vertex 52 16.5 1.7000000000000002
endloop
endfacet
facet normal -1 0 0
outer loop
vertex 52 5 3.8
vertex 52 16.5 1.7000000000000002
vertex 52 5 1.7
endloop
endfacet
facet normal -1 0 0
outer loop
vertex 52 5 3.8
vertex 52 5 1.7
vertex 52 0 1.7
endloop
endfacet
facet normal -1 0 0
outer loop
vertex 52 5 3.8
vertex 52 0 1.7
vertex 52 0 3.8
endloop
endfacet
facet normal -1 0 0
outer loop
vertex 52 16.5 1.7000000000000002
vertex 52 16.5 0
vertex 52 5 0
endloop
endfacet
facet normal -1 0 0
outer loop
vertex 52 16.5 1.7000000000000002
vertex 52 5 0
vertex 52 5 1.7
endloop
endfacet
facet normal 0 0 1
outer loop
vertex 7.5 0 3.8
vertex 7.5 5 3.8
vertex 0 5 3.8
endloop
endfacet
facet normal 0 0 1
outer loop
vertex 7.5 0 3.8
vertex 0 5 3.8
vertex 0 0 3.8
endloop
endfacet
facet normal 0 0 1
outer loop
vertex 59.5 0 3.8
vertex 59.5 5 3.8
vertex 52 5 3.8
endloop
endfacet
facet normal 0 0 1
outer loop
vertex 59.5 0 3.8
vertex 52 5 3.8
vertex 52 0 3.8
endloop
endfacet
facet normal 0 -1 0
outer loop
vertex 7.5 0 1.7
vertex 7.5 0 3.8
vertex 0 0 3.8
endloop
endfacet
facet normal 0 -1 0
outer loop
vertex 7.5 0 1.7
vertex 0 0 3.8
vertex 0 0 3.25
endloop
endfacet
facet normal 0 -1 0
outer loop
vertex 7.5 0 1.7
vertex 0 0 3.25
vertex 0 0 2.25
endloop
endfacet
facet normal 0 -1 0
outer loop
vertex 7.5 0 1.7
vertex 0 0 2.25
vertex 0 0 1.7
endloop
endfacet
facet normal 0 -1 0
outer loop
vertex 59.5 0 1.7
vertex 59.5 0 2.25
vertex 59.5 0 3.25
endloop
endfacet
facet normal 0 -1 0
outer loop
vertex 59.5 0 1.7
vertex 59.5 0 3.25
vertex 59.5 0 3.8
endloop
endfacet
facet normal 0 -1 0
outer loop
vertex 59.5 0 1.7
vertex 59.5 0 3.8
vertex 52 0 3.8
endloop
endfacet
facet normal 0 -1 0
outer loop
vertex 59.5 0 1.7
vertex 52 0 3.8
vertex 52 0 1.7
endloop
endfacet
facet normal 1 0 0
outer loop
vertex 1 24 0.75
vertex 1 24 4.75
vertex 1 6 4.75
endloop
endfacet
facet normal 1 0 0
outer loop
vertex 1 24 0.75
vertex 1 6 4.75
vertex 1 6 0.75
endloop
endfacet
facet normal -1 0 0
outer loop
vertex 5 6 4.75
vertex 5 24 4.75
vertex 5 24 0.75
endloop
endfacet
facet normal -1 0 0
outer loop
vertex 5 6 4.75
vertex 5 24 0.75
vertex 5 6 0.75
endloop
endfacet
facet normal 0 1 0
outer loop
vertex 5 6 4.75
vertex 5 6 0.75
vertex 1 6 0.75
endloop
endfacet
facet normal 0 1 0
outer loop
vertex 5 6 4.75
vertex 1 6 0.75
vertex 1 6 4.75
endloop
endfacet
facet normal 0 1 0
outer loop
vertex 58.5 6 4.75
vertex 58.5 6 0.75
vertex 54.5 6 0.75
endloop
endfacet
facet normal 0 1 0
outer loop
vertex 58.5 6 4.75
vertex 54.5 6 0.75
vertex 54.5 6 4.75
endloop
endfacet
facet normal 0 0 1
outer loop
vertex 5 6 0.75
vertex 5 24 0.75
vertex 1 24 0.75
endloop
endfacet
facet normal 0 0 1
outer loop
vertex 5 6 0.75
vertex 1 24 0.75
vertex 1 6 0.75
endloop
endfacet
facet normal 0 0 1
outer loop
vertex 58.5 6 0.75
vertex 58.5 24 0.75
vertex 54.5 24 0.75
endloop
endfacet
facet normal 0 0 1
outer loop
vertex 58.5 6 0.75
vertex 54.5 24 0.75
vertex 54.5 6 0.75
endloop
endfacet
facet normal 0 0 -1
outer loop
vertex 5 24 4.75
vertex 5 6 4.75
vertex 1 6 4.75
endloop
endfacet
facet normal 0 0 -1
outer loop
vertex 5 24 4.75
vertex 1 6 4.75
vertex 1 24 4.75
endloop
endfacet
facet normal 0 0 -1
outer loop
vertex 58.5 24 4.75
vertex 58.5 6 4.75
vertex 54.5 6 4.75
endloop
endfacet
facet normal 0 0 -1
outer loop
vertex 58.5 24 4.75
vertex 54.5 6 4.75
vertex 54.5 24 4.75
endloop
endfacet
facet normal 0 1 0
outer loop
vertex 59.5 24 5.5
vertex 59.5 24 4.75
vertex 58.5 24 4.75
endloop
endfacet
facet normal 0 1 0
outer loop
vertex 59.5 24 5.5
vertex 58.5 24 4.75
vertex 54.5 24 4.75
endloop
endfacet
facet normal 0 1 0
outer loop
vertex 59.5 24 5.5
vertex 54.5 24 4.75
vertex 5 24 4.75
endloop
endfacet
facet normal 0 1 0
outer loop
vertex 59.5 24 5.5
vertex 5 24 4.75
vertex 1 24 4.75
endloop
endfacet
facet normal 0 1 0
outer loop
vertex 59.5 24 5.5
vertex 1 24 4.75
vertex 0 24 4.75
endloop
endfacet
facet normal 0 1 0
outer loop
vertex 59.5 24 5.5
vertex 0 24 4.75
vertex 0 24 5.5
endloop
endfacet
facet normal 0 1 0
outer loop
vertex 1 24 4.75
vertex 1 24 0.75
vertex 0 24 0.75
endloop
endfacet
facet normal 0 1 0
outer loop
vertex 1 24 4.75
vertex 0 24 0.75
vertex 0 24 1.7
endloop
endfacet
facet normal 0 1 0
outer loop
vertex 1 24 4.75
vertex 0 24 1.7
vertex 0 24 2.25
endloop
endfacet
facet normal 0 1 0
outer loop
vertex 1 24 4.75
vertex 0 24 2.25
vertex 0 24 3.25
endloop
endfacet
facet normal 0 1 0
outer loop
vertex 1 24 4.75
vertex 0 24 3.25
vertex 0 24 3.8
endloop
endfacet
facet normal 0 1 0
outer loop
vertex 1 24 4.75
vertex 0 24 3.8
vertex 0 24 4.75
endloop
endfacet
facet normal 0 1 0
outer loop
vertex 54.5 24 4.75
vertex 54.5 24 0.75
vertex 5 24 0.75
endloop
endfacet
facet normal 0 1 0
outer loop
vertex 54.5 24 4.75
vertex 5 24 0.75
vertex 5 24 4.75
endloop
endfacet
facet normal 0 1 0
outer loop
vertex 59.5 24 4.75
vertex 59.5 24 3.8
vertex 59.5 24 3.25
endloop
endfacet
facet normal 0 1 0
outer loop
vertex 59.5 24 4.75
vertex 59.5 24 3.25
vertex 59.5 24 2.25
endloop
endfacet
facet normal 0 1 0
outer loop
vertex 59.5 24 4.75
vertex 59.5 24 2.25
vertex 59.5 24 1.7
endloop
endfacet
facet normal 0 1 0
outer loop
vertex 59.5 24 4.75
vertex 59.5 24 1.7
vertex 59.5 24 0.75
endloop
endfacet
facet normal 0 1 0
outer loop
vertex 59.5 24 4.75
vertex 59.5 24 0.75
vertex 58.5 24 0.75
endloop
endfacet
facet normal 0 1 0
outer loop
vertex 59.5 24 4.75
vertex 58.5 24 0.75
vertex 58.5 24 4.75
endloop
endfacet
facet normal 0 1 0
outer loop
vertex 1 24 0.75
vertex 5 24 0.75
vertex 54.5 24 0.75
endloop
endfacet
facet normal 0 1 0
outer loop
vertex 1 24 0.75
vertex 54.5 24 0.75
vertex 58.5 24 0.75
endloop
endfacet
facet normal 0 1 0
outer loop
vertex 1 24 0.75
vertex 58.5 24 0.75
vertex 59.5 24 0.75
endloop
endfacet
facet normal 0 1 0
outer loop
vertex 1 24 0.75
vertex 59.5 24 0.75
vertex 59.5 24 0
endloop
endfacet
facet normal 0 1 0
outer loop
vertex 1 24 0.75
vertex 59.5 24 0
vertex 0 24 0
endloop
endfacet
facet normal 0 1 0
outer loop
vertex 1 24 0.75
vertex 0 24 0
vertex 0 24 0.75
endloop
endfacet
facet normal 1 0 0
outer loop
vertex 54.5 24 0.75
vertex 54.5 24 4.75
vertex 54.5 6 4.75
endloop
endfacet
facet normal 1 0 0
outer loop
vertex 54.5 24 0.75
vertex 54.5 6 4.75
vertex 54.5 6 0.75
endloop
endfacet
facet normal -1 0 0
outer loop
vertex 58.5 6 4.75
vertex 58.5 24 4.75
vertex 58.5 24 0.75
endloop
endfacet
facet normal -1 0 0
outer loop
vertex 58.5 6 4.75
vertex 58.5 24 0.75
vertex 58.5 6 0.75
endloop
endfacet
facet normal 0 -1 0
outer loop
vertex 0 6.5 2.25
vertex 0 6.5 3.25
vertex -1 6.5 3.25
endloop
endfacet
facet normal 0 -1 0
outer loop
vertex 0 6.5 2.25
vertex -1 6.5 3.25
vertex -1 6.5 2.25
endloop
endfacet
facet normal 0 -1 0
outer loop
vertex 60.5 6.5 2.25
vertex 60.5 6.5 3.25
vertex 59.5 6.5 3.25
endloop
endfacet
facet normal 0 -1 0
outer loop
vertex 60.5 6.5 2.25
vertex 59.5 6.5 3.25
vertex 59.5 6.5 2.25
endloop
endfacet
facet normal 0 0 1
outer loop
vertex 0 6.5 3.25
vertex 0 16.5 3.25
vertex -1 6.5 3.25
endloop
endfacet
facet normal 0 0 1
outer loop
vertex 60.5 6.5 3.25
vertex 59.5 16.5 3.25
vertex 59.5 6.5 3.25
endloop
endfacet
facet normal 0 0 -1
outer loop
vertex 0 6.5 2.25
vertex -1 6.5 2.25
vertex 0 16.5 2.25
endloop
endfacet
facet normal 0 0 -1
outer loop
vertex 60.5 6.5 2.25
vertex 59.5 6.5 2.25
vertex 59.5 16.5 2.25
endloop
endfacet
facet normal -0.9950371902099892 0.09950371902099898 1.1047131989294514e-16
outer loop
vertex -1 6.5 3.25
vertex 0 16.5 3.25
vertex 0 16.5 2.25
endloop
endfacet
facet normal -0.9950371902099892 0.09950371902099898 1.1047131989294514e-16
outer loop
vertex -1 6.5 3.25
vertex 0 16.5 2.25
vertex -1 6.5 2.25
endloop
endfacet
facet normal 0.995037190209989 0.0995037190210013 0
outer loop
vertex 59.5 16.5 3.25
vertex 60.5 6.5 3.25
vertex 60.5 6.5 2.25
endloop
endfacet
facet normal 0.995037190209989 0.0995037190210013 0
outer loop
vertex 59.5 16.5 3.25
vertex 60.5 6.5 2.25
vertex 59.5 16.5 2.25
endloop
endfacet
endsolid csg.js
